<svg width="1600" height="520" viewBox="0 0 1600 520" fill="none" xmlns="http://www.w3.org/2000/svg" role="img" aria-labelledby="title description">
  <title id="title">Meridian LMS</title>
  <desc id="description">A secure, role-aware learning management system built with microservices.</desc>
  <defs>
    <linearGradient id="background" x1="0" y1="0" x2="1600" y2="520" gradientUnits="userSpaceOnUse">
      <stop stop-color="#17172E"/>
      <stop offset="0.55" stop-color="#2B2B61"/>
      <stop offset="1" stop-color="#5C5CE5"/>
    </linearGradient>
    <linearGradient id="panel" x1="970" y1="95" x2="1500" y2="445" gradientUnits="userSpaceOnUse">
      <stop stop-color="#FFFFFF" stop-opacity="0.20"/>
      <stop offset="1" stop-color="#FFFFFF" stop-opacity="0.07"/>
    </linearGradient>
    <pattern id="grid" width="32" height="32" patternUnits="userSpaceOnUse">
      <path d="M32 0H0V32" stroke="#FFFFFF" stroke-opacity="0.065"/>
    </pattern>
    <filter id="shadow" x="900" y="55" width="650" height="430" filterUnits="userSpaceOnUse" color-interpolation-filters="sRGB">
      <feDropShadow dx="0" dy="24" stdDeviation="28" flood-color="#0B0B1A" flood-opacity="0.32"/>
    </filter>
  </defs>

  <rect width="1600" height="520" rx="28" fill="url(#background)"/>
  <rect width="1600" height="520" rx="28" fill="url(#grid)"/>
  <circle cx="1450" cy="40" r="260" fill="#8C8CFF" fill-opacity="0.12"/>
  <circle cx="1340" cy="520" r="220" fill="#11112A" fill-opacity="0.22"/>

  <g transform="translate(90 72)">
    <rect width="58" height="58" rx="15" fill="#6C6CF4"/>
    <path d="M16 39V19H22L29 31L36 19H42V39H36V28L31 37H27L22 28V39H16Z" fill="white"/>
    <text x="76" y="38" fill="white" font-family="Inter, Segoe UI, Arial, sans-serif" font-size="25" font-weight="700">Meridian LMS</text>
  </g>

  <text x="90" y="202" fill="#BDBDFF" font-family="Inter, Segoe UI, Arial, sans-serif" font-size="15" font-weight="700" letter-spacing="2.2">LEARN · BUILD · ADVANCE</text>
  <text x="90" y="266" fill="white" font-family="Inter, Segoe UI, Arial, sans-serif" font-size="54" font-weight="750">A complete LMS,</text>
  <text x="90" y="326" fill="white" font-family="Inter, Segoe UI, Arial, sans-serif" font-size="54" font-weight="750">shaped like a real product.</text>
  <text x="90" y="372" fill="#D8D8F4" font-family="Inter, Segoe UI, Arial, sans-serif" font-size="20">Secure accounts, course delivery, quizzes, payments, AI support and analytics.</text>

  <g transform="translate(90 414)" font-family="Inter, Segoe UI, Arial, sans-serif" font-size="14" font-weight="650">
    <rect width="136" height="42" rx="21" fill="#FFFFFF" fill-opacity="0.11" stroke="#FFFFFF" stroke-opacity="0.18"/>
    <circle cx="22" cy="21" r="5" fill="#7BE5B5"/>
    <text x="36" y="26" fill="white">Docker ready</text>
    <rect x="148" width="130" height="42" rx="21" fill="#FFFFFF" fill-opacity="0.11" stroke="#FFFFFF" stroke-opacity="0.18"/>
    <circle cx="170" cy="21" r="5" fill="#B9B9FF"/>
    <text x="184" y="26" fill="white">JWT secured</text>
    <rect x="290" width="160" height="42" rx="21" fill="#FFFFFF" fill-opacity="0.11" stroke="#FFFFFF" stroke-opacity="0.18"/>
    <circle cx="312" cy="21" r="5" fill="#FFD48A"/>
    <text x="326" y="26" fill="white">Database per service</text>
  </g>

  <g filter="url(#shadow)">
    <rect x="940" y="78" width="560" height="366" rx="24" fill="url(#panel)" stroke="#FFFFFF" stroke-opacity="0.20"/>
    <rect x="964" y="102" width="512" height="42" rx="12" fill="#11112B" fill-opacity="0.78"/>
    <circle cx="988" cy="123" r="5" fill="#FF8A8A"/>
    <circle cx="1006" cy="123" r="5" fill="#FFD48A"/>
    <circle cx="1024" cy="123" r="5" fill="#7BE5B5"/>
    <rect x="1050" y="116" width="156" height="14" rx="7" fill="#FFFFFF" fill-opacity="0.20"/>

    <rect x="964" y="164" width="126" height="256" rx="16" fill="#FFFFFF" fill-opacity="0.09"/>
    <rect x="984" y="190" width="72" height="10" rx="5" fill="#FFFFFF" fill-opacity="0.56"/>
    <rect x="984" y="224" width="86" height="34" rx="9" fill="#7777F7"/>
    <rect x="998" y="236" width="58" height="10" rx="5" fill="white" fill-opacity="0.90"/>
    <rect x="984" y="274" width="72" height="9" rx="4.5" fill="#FFFFFF" fill-opacity="0.25"/>
    <rect x="984" y="306" width="80" height="9" rx="4.5" fill="#FFFFFF" fill-opacity="0.25"/>

    <rect x="1110" y="164" width="366" height="112" rx="16" fill="#12122E" fill-opacity="0.70"/>
    <text x="1134" y="197" fill="#BDBDFF" font-family="Inter, Segoe UI, Arial, sans-serif" font-size="11" font-weight="700" letter-spacing="1">CONTINUE LEARNING</text>
    <rect x="1134" y="214" width="220" height="18" rx="9" fill="white" fill-opacity="0.92"/>
    <rect x="1134" y="246" width="290" height="7" rx="3.5" fill="#FFFFFF" fill-opacity="0.17"/>
    <rect x="1134" y="246" width="188" height="7" rx="3.5" fill="#7777F7"/>

    <rect x="1110" y="296" width="108" height="124" rx="16" fill="#FFFFFF" fill-opacity="0.92"/>
    <rect x="1130" y="318" width="68" height="8" rx="4" fill="#2F2F61" fill-opacity="0.24"/>
    <text x="1130" y="366" fill="#252540" font-family="Inter, Segoe UI, Arial, sans-serif" font-size="30" font-weight="750">2</text>
    <rect x="1130" y="389" width="50" height="7" rx="3.5" fill="#5C5CE5" fill-opacity="0.42"/>

    <rect x="1238" y="296" width="108" height="124" rx="16" fill="#FFFFFF" fill-opacity="0.92"/>
    <rect x="1258" y="318" width="68" height="8" rx="4" fill="#2F2F61" fill-opacity="0.24"/>
    <text x="1258" y="366" fill="#252540" font-family="Inter, Segoe UI, Arial, sans-serif" font-size="30" font-weight="750">80%</text>
    <rect x="1258" y="389" width="64" height="7" rx="3.5" fill="#63C69D"/>

    <rect x="1366" y="296" width="110" height="124" rx="16" fill="#FFFFFF" fill-opacity="0.92"/>
    <rect x="1386" y="318" width="70" height="8" rx="4" fill="#2F2F61" fill-opacity="0.24"/>
    <text x="1386" y="366" fill="#252540" font-family="Inter, Segoe UI, Arial, sans-serif" font-size="30" font-weight="750">A+</text>
    <rect x="1386" y="389" width="54" height="7" rx="3.5" fill="#FFD48A"/>
  </g>
</svg>
